<svg width="238" height="30" viewBox="0 0 238 30" fill="none" xmlns="http://www.w3.org/2000/svg">
<path d="M236.93 27.6356C237.175 27.5084 237.271 27.2066 237.144 26.9615L235.071 22.9671C234.944 22.722 234.642 22.6264 234.397 22.7536C234.152 22.8808 234.057 23.1826 234.184 23.4277L236.026 26.9782L232.475 28.8204C232.23 28.9475 232.135 29.2493 232.262 29.4945C232.389 29.7396 232.691 29.8352 232.936 29.708L236.93 27.6356ZM4.50881 21.3948C4.74738 21.2558 4.82804 20.9496 4.68898 20.7111C4.54991 20.4725 4.24378 20.3918 4.00521 20.5309L4.50881 21.3948ZM10.5813 17.075C10.3319 17.1936 10.2258 17.4918 10.3444 17.7412C10.4629 17.9907 10.7612 18.0967 11.0106 17.9782L10.5813 17.075ZM17.7515 15.0528C18.0082 14.951 18.1338 14.6604 18.0321 14.4037C17.9303 14.147 17.6397 14.0214 17.383 14.1232L17.7515 15.0528ZM24.3528 11.5847C24.0909 11.6722 23.9496 11.9555 24.0371 12.2174C24.1247 12.4793 24.408 12.6206 24.6699 12.5331L24.3528 11.5847ZM31.698 10.3683C31.9637 10.293 32.1181 10.0166 32.0428 9.75094C31.9675 9.48525 31.6911 9.3309 31.4254 9.40618L31.698 10.3683ZM38.5873 7.53594C38.3188 7.60042 38.1534 7.87036 38.2179 8.13886C38.2824 8.40737 38.5523 8.57277 38.8208 8.5083L38.5873 7.53594ZM46.0134 6.91868C46.284 6.8638 46.4589 6.59991 46.404 6.32928C46.3491 6.05865 46.0853 5.88374 45.8146 5.93863L46.0134 6.91868ZM53.0944 4.5844C52.8222 4.63067 52.639 4.88887 52.6853 5.16111C52.7315 5.43335 52.9897 5.61653 53.262 5.57026L53.0944 4.5844ZM60.5458 4.4406C60.8193 4.4021 61.0097 4.14922 60.9712 3.87578C60.9327 3.60233 60.6799 3.41186 60.4064 3.45036L60.5458 4.4406ZM67.7409 2.51563C67.4665 2.54706 67.2696 2.79494 67.301 3.06929C67.3325 3.34364 67.5804 3.54056 67.8547 3.50913L67.7409 2.51563ZM75.1862 2.75778C75.4612 2.73281 75.6639 2.48963 75.6389 2.21462C75.614 1.93961 75.3708 1.73691 75.0958 1.76187L75.1862 2.75778ZM82.4745 1.1734C82.199 1.19242 81.9911 1.43117 82.0101 1.70666C82.0291 1.98214 82.2679 2.19005 82.5433 2.17103L82.4745 1.1734ZM89.6962 1.76731C89.9721 1.7567 90.1872 1.52441 90.1766 1.24847C90.166 0.972529 89.9337 0.75744 89.6578 0.768053L89.6962 1.76731ZM96.6485 0.628964C96.3724 0.629595 96.149 0.853963 96.1497 1.1301C96.1503 1.40625 96.3747 1.62959 96.6508 1.62896L96.6485 0.628964ZM103.605 1.72393C103.881 1.7319 104.112 1.51459 104.12 1.23857C104.128 0.962538 103.91 0.732316 103.634 0.724349L103.605 1.72393ZM110.621 1.02323C110.346 1.00776 110.109 1.21872 110.094 1.49443C110.079 1.77014 110.289 2.00619 110.565 2.02166L110.621 1.02323ZM117.504 2.49617C117.779 2.51824 118.02 2.313 118.042 2.03774C118.065 1.76248 117.859 1.52144 117.584 1.49937L117.504 2.49617ZM124.541 2.13359C124.266 2.10563 124.021 2.30568 123.993 2.5804C123.965 2.85513 124.165 3.1005 124.44 3.12845L124.541 2.13359ZM131.362 3.90139C131.636 3.93463 131.885 3.73934 131.919 3.46521C131.952 3.19107 131.756 2.9419 131.482 2.90866L131.362 3.90139ZM138.404 3.81024C138.131 3.77222 137.878 3.96313 137.84 4.23664C137.802 4.51015 137.993 4.7627 138.266 4.80072L138.404 3.81024ZM145.158 5.81561C145.431 5.858 145.686 5.67115 145.729 5.39828C145.771 5.12541 145.584 4.86984 145.312 4.82746L145.158 5.81561ZM152.201 5.95021C151.929 5.90382 151.671 6.08688 151.624 6.3591C151.578 6.63132 151.761 6.8896 152.033 6.93599L152.201 5.95021ZM158.894 8.15392C159.165 8.20402 159.426 8.02449 159.476 7.75293C159.526 7.48137 159.347 7.22061 159.075 7.17051L158.894 8.15392ZM165.931 8.48095C165.66 8.42739 165.397 8.60359 165.343 8.87449C165.29 9.14538 165.466 9.40841 165.737 9.46196L165.931 8.48095ZM172.561 10.854C172.831 10.9108 173.096 10.7377 173.153 10.4675C173.21 10.1973 173.037 9.93215 172.766 9.87535L172.561 10.854ZM179.593 11.3509C179.323 11.291 179.056 11.461 178.996 11.7306C178.937 12.0002 179.107 12.2672 179.376 12.3271L179.593 11.3509ZM186.168 13.8739C186.436 13.9367 186.705 13.7696 186.768 13.5007C186.831 13.2318 186.664 12.9629 186.395 12.9001L186.168 13.8739ZM193.183 14.522C192.915 14.4564 192.644 14.6208 192.579 14.889C192.513 15.1572 192.677 15.4279 192.946 15.4934L193.183 14.522ZM199.709 17.1828C199.977 17.2511 200.249 17.0895 200.318 16.8219C200.386 16.5544 200.224 16.2821 199.957 16.2138L199.709 17.1828ZM206.705 17.971C206.438 17.9001 206.164 18.0589 206.093 18.3258C206.022 18.5927 206.181 18.8665 206.448 18.9374L206.705 17.971ZM213.179 20.7611C213.446 20.8346 213.721 20.6784 213.794 20.4122C213.868 20.146 213.712 19.8707 213.446 19.7972L213.179 20.7611ZM220.165 21.6888C219.9 21.6127 219.623 21.7661 219.547 22.0315C219.47 22.297 219.624 22.5739 219.889 22.65L220.165 21.6888ZM226.566 24.6024C226.831 24.6813 227.109 24.5307 227.188 24.2661C227.267 24.0014 227.116 23.7229 226.852 23.6441L226.566 24.6024ZM233.524 25.6723C233.26 25.5905 232.98 25.738 232.898 26.0017C232.816 26.2655 232.964 26.5456 233.227 26.6274L233.524 25.6723ZM1.39722 23.3166C2.33636 22.7008 3.37147 22.0578 4.50881 21.3948L4.00521 20.5309C2.85289 21.2026 1.80285 21.8548 0.848872 22.4804L1.39722 23.3166ZM11.0106 17.9782C13.0434 17.0119 15.2851 16.0307 17.7515 15.0528L17.383 14.1232C14.8964 15.1091 12.6344 16.0991 10.5813 17.075L11.0106 17.9782ZM24.6699 12.5331C26.8698 11.7975 29.2102 11.0732 31.698 10.3683L31.4254 9.40618C28.9229 10.1152 26.5678 10.8441 24.3528 11.5847L24.6699 12.5331ZM38.8208 8.5083C41.111 7.95834 43.5072 7.4269 46.0134 6.91868L45.8146 5.93863C43.297 6.44916 40.8893 6.98316 38.5873 7.53594L38.8208 8.5083ZM53.262 5.57026C55.6043 5.17216 58.0313 4.79459 60.5458 4.4406L60.4064 3.45036C57.8827 3.80566 55.4462 4.18467 53.0944 4.5844L53.262 5.57026ZM67.8547 3.50913C70.2275 3.2373 72.6707 2.98615 75.1862 2.75778L75.0958 1.76187C72.5726 1.99094 70.1216 2.24289 67.7409 2.51563L67.8547 3.50913ZM82.5433 2.17103C83.7579 2.08718 84.9879 2.00851 86.2336 1.93523L86.1749 0.936958C84.9258 1.01043 83.6924 1.08932 82.4745 1.1734L82.5433 2.17103ZM86.2336 1.93523C87.3775 1.86795 88.5319 1.81209 89.6962 1.76731L89.6578 0.768053C88.4869 0.813083 87.3257 0.869261 86.1749 0.936958L86.2336 1.93523ZM96.6508 1.62896C98.9396 1.62374 101.259 1.65623 103.605 1.72393L103.634 0.724349C101.278 0.656361 98.9483 0.623715 96.6485 0.628964L96.6508 1.62896ZM110.565 2.02166C112.86 2.15043 115.174 2.30933 117.504 2.49617L117.584 1.49937C115.247 1.31193 112.924 1.15247 110.621 1.02323L110.565 2.02166ZM124.44 3.12845C126.738 3.3623 129.046 3.62063 131.362 3.90139L131.482 2.90866C129.161 2.62717 126.846 2.36812 124.541 2.13359L124.44 3.12845ZM138.266 4.80072C140.562 5.11981 142.861 5.45877 145.158 5.81561L145.312 4.82746C143.009 4.46984 140.705 4.1301 138.404 3.81024L138.266 4.80072ZM152.033 6.93599C154.326 7.32672 156.614 7.73336 158.894 8.15392L159.075 7.17051C156.791 6.74916 154.499 6.34173 152.201 5.95021L152.033 6.93599ZM165.737 9.46196C168.025 9.91442 170.301 10.3791 172.561 10.854L172.766 9.87535C170.503 9.3997 168.223 8.93421 165.931 8.48095L165.737 9.46196ZM179.376 12.3271C181.663 12.8349 183.928 13.3513 186.168 13.8739L186.395 12.9001C184.152 12.3767 181.884 11.8595 179.593 11.3509L179.376 12.3271ZM192.946 15.4934C195.235 16.053 197.492 16.617 199.709 17.1828L199.957 16.2138C197.736 15.6473 195.476 15.0824 193.183 14.522L192.946 15.4934ZM206.448 18.9374C208.744 19.5475 210.99 20.1564 213.179 20.7611L213.446 19.7972C211.253 19.1917 209.004 18.5819 206.705 17.971L206.448 18.9374ZM219.889 22.65C222.197 23.3121 224.425 23.9644 226.566 24.6024L226.852 23.6441C224.708 23.0051 222.476 22.3518 220.165 21.6888L219.889 22.65ZM233.227 26.6274C234.369 26.9814 235.477 27.3287 236.549 27.6684L236.851 26.7151C235.777 26.3748 234.667 26.0269 233.524 25.6723L233.227 26.6274Z" fill="black"/>
</svg>
