<svg width="56" height="56" viewBox="0 0 56 56" fill="none" xmlns="http://www.w3.org/2000/svg">
<path d="M32.1816 26.8956H37.7275C38.0291 26.8974 38.3281 26.8395 38.6073 26.7255C38.8865 26.6115 39.1404 26.4434 39.3546 26.231L49.8504 15.7352C50.0652 15.5222 50.2357 15.2687 50.352 14.9894C50.4684 14.7102 50.5283 14.4106 50.5283 14.1081C50.5283 13.8056 50.4684 13.5061 50.352 13.2268C50.2357 12.9475 50.0652 12.6941 49.8504 12.481L44.3046 6.9352C44.0915 6.7204 43.8381 6.54991 43.5588 6.43357C43.2795 6.31722 42.98 6.25732 42.6775 6.25732C42.3749 6.25732 42.0754 6.31722 41.7962 6.43357C41.5169 6.54991 41.2634 6.7204 41.0504 6.9352L30.5546 17.431C30.1358 17.8702 29.8984 18.4514 29.89 19.0581V24.6039C29.89 25.2117 30.1314 25.7946 30.5612 26.2244C30.991 26.6542 31.5739 26.8956 32.1816 26.8956ZM34.4733 20.0206L42.6775 11.8164L44.9691 14.1081L36.765 22.3123H34.4733V20.0206ZM48.2233 24.6039C47.6155 24.6039 47.0326 24.8454 46.6029 25.2752C46.1731 25.7049 45.9316 26.2878 45.9316 26.8956V42.9373C45.9316 43.5451 45.6902 44.128 45.2604 44.5577C44.8307 44.9875 44.2478 45.2289 43.64 45.2289H11.5566C10.9489 45.2289 10.366 44.9875 9.93619 44.5577C9.50642 44.128 9.26497 43.5451 9.26497 42.9373V20.9144L22.74 34.4123C23.3795 35.0601 24.1413 35.5745 24.9812 35.9256C25.8211 36.2767 26.7224 36.4575 27.6327 36.4575C28.543 36.4575 29.4443 36.2767 30.2842 35.9256C31.1241 35.5745 31.8859 35.0601 32.5254 34.4123C32.9453 33.9839 33.1805 33.408 33.1805 32.8081C33.1805 32.2083 32.9453 31.6323 32.5254 31.2039C32.312 30.9857 32.0571 30.8122 31.7757 30.6938C31.4943 30.5754 31.1921 30.5144 30.8869 30.5144C30.5816 30.5144 30.2794 30.5754 29.998 30.6938C29.7166 30.8122 29.4617 30.9857 29.2483 31.2039C28.8199 31.6238 28.244 31.859 27.6441 31.859C27.0443 31.859 26.4684 31.6238 26.04 31.2039L12.4962 17.6831H23.015C23.6228 17.6831 24.2057 17.4417 24.6354 17.0119C25.0652 16.5821 25.3066 15.9992 25.3066 15.3914C25.3066 14.7837 25.0652 14.2008 24.6354 13.771C24.2057 13.3412 23.6228 13.0998 23.015 13.0998H11.5566C9.73328 13.0998 7.98459 13.8241 6.69528 15.1134C5.40597 16.4027 4.68164 18.1514 4.68164 19.9748V42.8914C4.68164 44.7148 5.40597 46.4635 6.69528 47.7528C7.98459 49.0421 9.73328 49.7664 11.5566 49.7664H43.64C45.4633 49.7664 47.212 49.0421 48.5013 47.7528C49.7906 46.4635 50.515 44.7148 50.515 42.8914V26.8498C50.515 26.242 50.2735 25.6591 49.8438 25.2293C49.414 24.7996 48.8311 24.5581 48.2233 24.5581V24.6039Z" fill="#EE3838"/>
</svg>
