<svg width="45" height="44" viewBox="0 0 45 44" fill="none" xmlns="http://www.w3.org/2000/svg">
<circle cx="22.5801" cy="21.9944" r="22" fill="#2F2F2F"/>
<g clip-path="url(#clip0_91_449)">
<path d="M26.8135 19.3017L31.2726 14.8426C31.2205 15.9371 31.1683 17.0316 31.1162 18.1261C31.0873 18.7342 31.5303 19.2206 32.1268 19.2872C32.703 19.3538 33.2618 18.8442 33.2878 18.2767C33.2994 18.0248 33.311 17.77 33.3226 17.5181C33.4066 15.7431 33.4905 13.9682 33.5745 12.1932C33.5919 11.8516 33.4558 11.5533 33.2299 11.342C33.0186 11.119 32.7203 10.9829 32.3787 10.9974C30.6037 11.0814 28.8288 11.1653 27.0538 11.2493C26.8019 11.2609 26.5471 11.2725 26.2952 11.284C25.7248 11.3101 25.2181 11.8718 25.2847 12.4451C25.3513 13.0416 25.8377 13.4846 26.4458 13.4557C27.5403 13.4035 28.6348 13.3514 29.7293 13.2993C28.2439 14.7847 26.7614 16.2672 25.276 17.7526L25.2702 17.7584C21.9375 15.1843 17.1194 15.4217 14.0646 18.4765C10.7493 21.7918 10.7493 27.189 14.0646 30.5044C17.38 33.8197 22.7772 33.8197 26.0925 30.5044C29.1473 27.4496 29.3847 22.6315 26.8106 19.2988L26.8135 19.3017ZM15.7614 28.8134C13.3784 26.4304 13.3784 22.5562 15.7614 20.1761C18.1444 17.796 22.0186 17.7931 24.3987 20.1761C26.7788 22.5591 26.7817 26.4333 24.3987 28.8134C22.0157 31.1935 18.1415 31.1964 15.7614 28.8134Z" fill="white"/>
</g>
<defs>
<clipPath id="clip0_91_449">
<rect width="22" height="22" fill="white" transform="translate(11.5801 10.9944)"/>
</clipPath>
</defs>
</svg>
