<svg width="81" height="82" viewBox="0 0 81 82" fill="none" xmlns="http://www.w3.org/2000/svg">
<g clip-path="url(#clip0_90_326)">
<path d="M55.0977 25.0083L16.834 27.305C15.3255 27.3984 13.8824 27.9547 12.7016 28.8981C11.5208 29.8415 10.6597 31.1262 10.2357 32.5769C9.81169 34.0276 9.84542 35.5738 10.3323 37.0046C10.8192 38.4355 11.7355 39.6814 12.9563 40.5724L24.6219 49.0227C24.8964 49.2314 25.1266 49.4927 25.299 49.7913C25.4714 50.0899 25.5825 50.4198 25.626 50.7619L27.1114 65.0898C27.2395 66.3073 27.6698 67.4736 28.3632 68.4826C29.0567 69.4915 29.9913 70.3112 31.0821 70.8671C32.1729 71.423 33.3853 71.6975 34.6092 71.6657C35.8331 71.6338 37.0296 71.2967 38.09 70.6848C39.0773 70.1015 39.9217 69.3048 40.5613 68.353L61.6822 36.364C62.4296 35.2261 62.846 33.9029 62.8852 32.5421C62.9243 31.1813 62.5846 29.8364 61.9039 28.6574C61.2232 27.4784 60.2283 26.5118 59.0303 25.8652C57.8322 25.2187 56.4781 24.9178 55.119 24.9961L55.0977 25.0083ZM57.5816 33.6697L36.4607 65.6587C36.1789 66.071 35.7778 66.3873 35.3111 66.5652C34.8444 66.7431 34.3345 66.774 33.8497 66.6539C33.365 66.5337 32.9285 66.2683 32.5989 65.893C32.2693 65.5178 32.0623 65.0508 32.0057 64.5546L30.4991 50.239C30.4769 50.049 30.4436 49.8605 30.3994 49.6744L45.0122 41.2377C45.5747 40.9129 45.9852 40.378 46.1533 39.7506C46.3214 39.1232 46.2334 38.4548 45.9086 37.8923C45.5838 37.3298 45.0489 36.9194 44.4216 36.7512C43.7942 36.5831 43.1257 36.6711 42.5632 36.9959L27.9504 45.4326C27.8113 45.3013 27.6647 45.1782 27.5113 45.064L15.8669 36.6014C15.4655 36.3042 15.1645 35.8915 15.0044 35.4184C14.8443 34.9454 14.8326 34.4347 14.9709 33.9548C15.1092 33.4749 15.391 33.0488 15.7784 32.7336C16.1658 32.4183 16.6403 32.2291 17.1382 32.1912L55.402 29.8945C55.8522 29.8719 56.2998 29.974 56.6957 30.1895C57.0916 30.405 57.4203 30.7256 57.6456 31.1159C57.871 31.5063 57.9843 31.9512 57.973 32.4018C57.9617 32.8524 57.8262 33.2911 57.5816 33.6697Z" fill="#EE3838"/>
</g>
<defs>
<clipPath id="clip0_90_326">
<rect width="58.7756" height="58.7756" fill="white" transform="translate(0.546875 30.1479) rotate(-30)"/>
</clipPath>
</defs>
</svg>
