<svg width="25" height="25" viewBox="0 0 25 25" fill="none" xmlns="http://www.w3.org/2000/svg">
<path d="M16.4785 16.0564C16.4785 15.3642 16.2732 14.6875 15.8887 14.1119C15.5041 13.5363 14.9574 13.0877 14.3179 12.8228C13.6784 12.5579 12.9746 12.4886 12.2957 12.6236C11.6168 12.7587 10.9931 13.092 10.5036 13.5815C10.0142 14.071 9.68081 14.6946 9.54577 15.3736C9.41072 16.0525 9.48003 16.7562 9.74494 17.3958C10.0098 18.0353 10.4584 18.582 11.034 18.9665C11.6096 19.3511 12.2863 19.5564 12.9785 19.5564C13.9068 19.5564 14.797 19.1876 15.4534 18.5313C16.1098 17.8749 16.4785 16.9847 16.4785 16.0564ZM11.4785 16.0564C11.4785 15.7597 11.5665 15.4697 11.7313 15.223C11.8961 14.9764 12.1304 14.7841 12.4045 14.6706C12.6786 14.557 12.9802 14.5273 13.2712 14.5852C13.5621 14.6431 13.8294 14.786 14.0392 14.9957C14.249 15.2055 14.3918 15.4728 14.4497 15.7638C14.5076 16.0547 14.4779 16.3563 14.3643 16.6304C14.2508 16.9045 14.0585 17.1388 13.8119 17.3036C13.5652 17.4684 13.2752 17.5564 12.9785 17.5564C12.5807 17.5564 12.1992 17.3984 11.9179 17.1171C11.6366 16.8358 11.4785 16.4542 11.4785 16.0564ZM19.9785 16.0564L19.9785 8.0564C19.9785 6.19988 19.241 4.4194 17.9283 3.10665C16.6155 1.79389 14.835 1.0564 12.9785 1.0564C11.122 1.0564 9.34152 1.79389 8.02877 3.10665C6.71601 4.4194 5.97852 6.19988 5.97852 8.0564L5.97851 16.0564C5.97851 17.9129 6.71601 19.6934 8.02877 21.0061C9.34152 22.3189 11.122 23.0564 12.9785 23.0564C14.835 23.0564 16.6155 22.3189 17.9283 21.0061C19.241 19.6934 19.9785 17.9129 19.9785 16.0564ZM7.97851 16.0564L7.97852 8.0564C7.97852 6.73031 8.5053 5.45854 9.44298 4.52086C10.3807 3.58318 11.6524 3.0564 12.9785 3.0564C14.3046 3.0564 15.5764 3.58318 16.514 4.52086C17.4517 5.45854 17.9785 6.73031 17.9785 8.0564L17.9785 16.0564C17.9785 17.3825 17.4517 18.6542 16.514 19.5919C15.5764 20.5296 14.3046 21.0564 12.9785 21.0564C11.6524 21.0564 10.3807 20.5296 9.44298 19.5919C8.5053 18.6542 7.97851 17.3825 7.97851 16.0564Z" fill="#EE3838"/>
</svg>
