<svg width="60" height="61" viewBox="0 0 60 61" fill="none" xmlns="http://www.w3.org/2000/svg">
<path d="M47.209 17.7871H39.834V15.2871C39.834 12.6349 38.798 10.0914 36.9539 8.21604C35.1098 6.34068 32.6086 5.28711 30.0007 5.28711C27.3927 5.28711 24.8915 6.34068 23.0474 8.21604C21.2033 10.0914 20.1673 12.6349 20.1673 15.2871V17.7871H12.7923C12.1403 17.7871 11.515 18.0505 11.054 18.5193C10.593 18.9882 10.334 19.6241 10.334 20.2871V47.7871C10.334 49.7762 11.111 51.6839 12.4941 53.0904C13.8772 54.4969 15.753 55.2871 17.709 55.2871H42.2923C44.2483 55.2871 46.1242 54.4969 47.5072 53.0904C48.8903 51.6839 49.6673 49.7762 49.6673 47.7871V20.2871C49.6673 19.6241 49.4083 18.9882 48.9473 18.5193C48.4863 18.0505 47.861 17.7871 47.209 17.7871ZM25.084 15.2871C25.084 13.961 25.602 12.6893 26.524 11.7516C27.4461 10.8139 28.6967 10.2871 30.0007 10.2871C31.3046 10.2871 32.5552 10.8139 33.4773 11.7516C34.3993 12.6893 34.9173 13.961 34.9173 15.2871V17.7871H25.084V15.2871ZM44.7507 47.7871C44.7507 48.4501 44.4917 49.086 44.0306 49.5549C43.5696 50.0237 42.9443 50.2871 42.2923 50.2871H17.709C17.057 50.2871 16.4317 50.0237 15.9707 49.5549C15.5097 49.086 15.2507 48.4501 15.2507 47.7871V22.7871H20.1673V25.2871C20.1673 25.9502 20.4263 26.586 20.8873 27.0549C21.3484 27.5237 21.9737 27.7871 22.6257 27.7871C23.2776 27.7871 23.9029 27.5237 24.364 27.0549C24.825 26.586 25.084 25.9502 25.084 25.2871V22.7871H34.9173V25.2871C34.9173 25.9502 35.1763 26.586 35.6373 27.0549C36.0984 27.5237 36.7237 27.7871 37.3757 27.7871C38.0276 27.7871 38.6529 27.5237 39.114 27.0549C39.575 26.586 39.834 25.9502 39.834 25.2871V22.7871H44.7507V47.7871Z" fill="#EE3838"/>
</svg>
