<svg width="25" height="25" viewBox="0 0 25 25" fill="white" xmlns="http://www.w3.org/2000/svg">
  <path d="M19.6328 7.54639H16.6328V6.54639C16.6328 5.48552 16.2114 4.46811 15.4612 3.71796C14.7111 2.96781 13.6937 2.54639 12.6328 2.54639C11.5719 2.54639 10.5545 2.96781 9.80439 3.71796C9.05424 4.46811 8.63281 5.48552 8.63281 6.54639V7.54639H5.63281C5.3676 7.54639 5.11324 7.65174 4.92571 7.83928C4.73817 8.02682 4.63281 8.28117 4.63281 8.54639V19.5464C4.63281 20.342 4.94888 21.1051 5.51149 21.6677C6.0741 22.2303 6.83716 22.5464 7.63281 22.5464H17.6328C18.4285 22.5464 19.1915 22.2303 19.7541 21.6677C20.3167 21.1051 20.6328 20.342 20.6328 19.5464V8.54639C20.6328 8.28117 20.5275 8.02682 20.3399 7.83928C20.1524 7.65174 19.898 7.54639 19.6328 7.54639ZM10.6328 6.54639C10.6328 6.01595 10.8435 5.50725 11.2186 5.13217C11.5937 4.7571 12.1024 4.54639 12.6328 4.54639C13.1632 4.54639 13.672 4.7571 14.047 5.13217C14.4221 5.50725 14.6328 6.01595 14.6328 6.54639V7.54639H10.6328V6.54639ZM18.6328 19.5464C18.6328 19.8116 18.5275 20.066 18.3399 20.2535C18.1524 20.441 17.898 20.5464 17.6328 20.5464H7.63281C7.3676 20.5464 7.11324 20.441 6.92571 20.2535C6.73817 20.066 6.63281 19.8116 6.63281 19.5464V9.54639H8.63281V10.5464C8.63281 10.8116 8.73817 11.066 8.92571 11.2535C9.11324 11.441 9.3676 11.5464 9.63281 11.5464C9.89803 11.5464 10.1524 11.441 10.3399 11.2535C10.5275 11.066 10.6328 10.8116 10.6328 10.5464V9.54639H14.6328V10.5464C14.6328 10.8116 14.7382 11.066 14.9257 11.2535C15.1132 11.441 15.3676 11.5464 15.6328 11.5464C15.898 11.5464 16.1524 11.441 16.3399 11.2535C16.5275 11.066 16.6328 10.8116 16.6328 10.5464V9.54639H18.6328V19.5464Z"/>
  </svg>
