<svg width="43" height="48" viewBox="0 0 43 48" fill="none" xmlns="http://www.w3.org/2000/svg">
<circle cx="21.0675" cy="26.9849" r="20.5225" fill="#EE3838"/>
<circle cx="22.4229" cy="20.9132" r="20.5225" fill="#2F2F2F"/>
<path d="M33.0222 8.8152C32.8634 8.64726 32.6375 8.54345 32.381 8.55566C31.0436 8.61978 29.7062 8.6839 28.3687 8.74497C28.1764 8.75413 27.9871 8.76329 27.7947 8.77246C27.3641 8.79383 26.9825 9.21521 27.0313 9.6488C27.0832 10.0977 27.4466 10.4335 27.9077 10.4122C28.7321 10.3725 29.5565 10.3328 30.381 10.2961C29.2634 11.4137 28.1428 12.5343 27.0252 13.6519C27.0252 13.6519 27.0222 13.6549 27.0191 13.658C24.5061 11.719 20.8755 11.8961 18.5732 14.2015C18.048 14.7267 17.6389 15.3252 17.3335 15.9603C14.332 16.4916 12.0449 19.1115 12.0449 22.2657C12.0449 25.4199 14.4877 28.2169 17.6328 28.623V31.5116H16.1121C15.6816 31.5116 15.2724 31.8902 15.2908 32.333C15.3121 32.7788 15.6511 33.1544 16.1121 33.1544H17.6328V34.675C17.6328 35.1055 18.0114 35.5147 18.4541 35.4964C18.8999 35.475 19.2755 35.1361 19.2755 34.675V33.1544H20.7961C21.2267 33.1544 21.6358 32.7757 21.6175 32.333C21.5962 31.8872 21.2572 31.5116 20.7961 31.5116H19.2755V28.623C21.4649 28.3421 23.3091 26.9528 24.2313 25.0383C25.4802 24.8184 26.6771 24.2291 27.639 23.2672C29.9413 20.9649 30.1214 17.3344 28.1825 14.8214C29.3031 13.7007 30.4237 12.5801 31.5443 11.4595C31.5046 12.2839 31.4649 13.1084 31.4283 13.9328C31.4069 14.3908 31.7398 14.7572 32.1917 14.8092C32.6253 14.858 33.0466 14.4763 33.068 14.0458C33.0772 13.8534 33.0863 13.6641 33.0955 13.4717C33.1596 12.1343 33.2237 10.7969 33.2848 9.45948C33.297 9.20299 33.1963 8.97704 33.0253 8.81826L33.0222 8.8152ZM22.9305 23.3253C21.8099 23.2825 20.7045 22.8398 19.8496 21.9878C18.6801 20.8184 18.277 19.1726 18.6312 17.6702C21.0862 17.7649 23.0588 19.7863 23.0588 22.2657C23.0588 22.6321 23.0099 22.9863 22.9305 23.3253ZM18.4541 26.8673C15.9167 26.8673 13.8495 24.8031 13.8495 22.2627C13.8495 20.3268 15.0495 18.6718 16.7442 17.9909C16.5274 19.8687 17.135 21.826 18.5702 23.2611C19.5656 24.2566 20.8114 24.8489 22.1061 25.0505C21.2633 26.1497 19.9412 26.8642 18.4511 26.8642L18.4541 26.8673ZM26.3596 21.9848C25.9046 22.4398 25.3794 22.7787 24.8145 23.0016C24.842 22.7573 24.8634 22.513 24.8634 22.2627C24.8634 19.0687 22.5122 16.4183 19.4496 15.9389C19.5717 15.7771 19.703 15.6214 19.8496 15.4748C21.645 13.6794 24.5641 13.6794 26.3596 15.4748C28.155 17.2702 28.155 20.1894 26.3596 21.9848Z" fill="white"/>
</svg>
