<svg width="45" height="45" viewBox="0 0 45 45" fill="none" xmlns="http://www.w3.org/2000/svg">
<circle cx="22.8105" cy="22.6921" r="22" fill="#EE3838"/>
<path d="M31.3715 18.2324C31.3715 13.6104 27.5314 9.84766 22.8078 9.84766C18.0842 9.84766 14.2441 13.6104 14.2441 18.2324C14.2441 22.4919 17.5069 26.0177 21.7115 26.5458V30.3257H19.6792C19.1048 30.3257 18.5566 30.8196 18.5828 31.3991C18.6091 31.9815 19.0639 32.4725 19.6792 32.4725H21.7115V34.4624C21.7115 35.0248 22.2159 35.5615 22.8078 35.5358C23.4026 35.5101 23.9041 35.0648 23.9041 34.4624V32.4725H25.9365C26.5109 32.4725 27.059 31.9786 27.0328 31.3991C27.0065 30.8167 26.5517 30.3257 25.9365 30.3257H23.9041V26.5458C28.1087 26.0177 31.3715 22.4919 31.3715 18.2324ZM16.6555 18.2324C16.6555 14.9122 19.4138 12.2086 22.8078 12.2086C26.2018 12.2086 28.9601 14.9093 28.9601 18.2324C28.9601 21.5555 26.2018 24.2562 22.8078 24.2562C19.4138 24.2562 16.6555 21.5555 16.6555 18.2324Z" fill="white"/>
</svg>
