<svg width="32" height="238" viewBox="0 0 32 238" fill="none" xmlns="http://www.w3.org/2000/svg">
<mask id="mask0_133_428" style="mask-type:alpha" maskUnits="userSpaceOnUse" x="2" y="9" width="30" height="227">
<path opacity="0.2" d="M30.5801 235.266L2.58008 235.266L2.58008 227.506L20.8601 216.306L20.8601 220.386L2.58007 209.506L2.58007 201.746L30.5801 201.666L30.5801 210.266L15.5401 210.346L15.5401 208.986L28.0601 216.426L28.0601 220.586L15.5401 228.346L15.5401 226.666L30.5801 226.666L30.5801 235.266ZM30.5801 197.102L2.58007 197.102L2.58007 187.662L30.5801 187.662L30.5801 197.102ZM30.5801 183.118L2.58007 183.118L2.58007 169.638C2.58007 167.025 3.00674 164.771 3.86007 162.878C4.7134 160.958 5.94007 159.478 7.54007 158.438C9.1134 157.398 10.9801 156.878 13.1401 156.878C15.3001 156.878 17.1667 157.398 18.7401 158.438C20.2867 159.478 21.4734 160.958 22.3001 162.878C23.1267 164.771 23.5401 167.025 23.5401 169.638L23.5401 177.878L19.6601 173.678L30.5801 173.678L30.5801 183.118ZM30.5801 166.358L20.3801 173.238L20.3801 163.238L30.5801 156.278L30.5801 166.358ZM20.7001 173.678L16.4201 177.878L16.4201 170.238C16.4201 168.931 16.1267 167.971 15.5401 167.358C14.9534 166.718 14.1534 166.398 13.1401 166.398C12.1267 166.398 11.3267 166.718 10.7401 167.358C10.1534 167.971 9.86007 168.931 9.86007 170.238L9.86007 177.878L5.58007 173.678L20.7001 173.678ZM31.2201 139.913C31.2201 144.207 30.0601 147.553 27.7401 149.953C25.4201 152.353 22.1667 153.553 17.9801 153.553L2.58007 153.553L2.58007 144.113L17.7001 144.113C19.8334 144.113 21.3534 143.727 22.2601 142.953C23.1401 142.18 23.5801 141.14 23.5801 139.833C23.5801 138.5 23.1401 137.46 22.2601 136.713C21.3534 135.94 19.8334 135.553 17.7001 135.553L2.58007 135.553L2.58007 126.273L17.9801 126.273C22.1667 126.273 25.4201 127.473 27.7401 129.873C30.0601 132.273 31.2201 135.62 31.2201 139.913ZM30.5801 121.946L2.58007 121.946L2.58007 114.186L20.8601 102.986L20.8601 107.066L2.58006 96.1861L2.58006 88.4261L30.5801 88.3461L30.5801 96.9461L15.5401 97.0261L15.5401 95.6661L28.0601 103.106L28.0601 107.266L15.5401 115.026L15.5401 113.346L30.5801 113.346L30.5801 121.946ZM30.5801 83.782L2.58006 83.782L2.58006 74.342L30.5801 74.342L30.5801 83.782ZM24.5801 61.3576L14.2201 61.8776L2.58006 51.3176L2.58006 41.0376L15.6201 52.8776L20.9801 58.1176L24.5801 61.3576ZM30.5801 69.7976L2.58006 69.7976L2.58006 60.5176L30.5801 60.5176L30.5801 69.7976ZM30.5801 51.3976L19.7001 59.6376L13.2201 53.5176L30.5801 40.4776L30.5801 51.3976ZM30.5801 43.6579L2.58006 31.4179L2.58006 22.1379L30.5801 9.89795L30.5801 19.6579L7.06006 28.6979L7.06006 25.0179L30.5801 34.0579L30.5801 43.6579ZM25.7001 36.3779L18.9001 33.9779L18.9001 21.0979L25.7001 18.6979L25.7001 36.3779Z" fill="#2F2F2F"/>
</mask>
<g mask="url(#mask0_133_428)">
<rect width="367.646" height="63.4462" transform="matrix(0.00349557 0.999994 -0.999481 0.0322183 62.5566 -113.65)" fill="#808080"/>
</g>
</svg>
